<svg display="none" version="1.1" xmlns="http://www.w3.org/2000/svg">
  <symbol id="twitter" viewBox="0 0 20 17">
    <path d="M6.28991551,17 C3.97271297,17 1.81586744,16.2895561 0,15.0718928 C0.321006621,15.1115277 0.64764622,15.1318042 0.978821464,15.1318042 C2.90120341,15.1318042 4.67047076,14.4456922 6.07476499,13.2946736 C4.27923479,13.2600122 2.76389041,12.0192413 2.24177914,10.314176 C2.4922638,10.3642935 2.74933246,10.3911503 3.01371667,10.3911503 C3.38798054,10.3911503 3.75046637,10.3387374 4.09480961,10.2406449 C2.21763781,9.84643844 0.803321263,8.11183826 0.803321263,6.03246046 C0.803321263,6.01440287 0.803321263,5.99642179 0.803613885,5.97851722 C1.35688943,6.29995769 1.98953875,6.49300561 2.66220418,6.51527154 C1.56121292,5.74568139 0.836753356,4.43206798 0.836753356,2.94315819 C0.836753356,2.15665817 1.03910165,1.41943397 1.39229672,0.785581831 C3.41607228,3.38204953 6.43951864,5.09063454 9.84973847,5.26960365 C9.77980175,4.95550865 9.74344343,4.62794696 9.74344343,4.29158603 C9.74344343,1.92152688 11.5806723,0 13.8468122,0 C15.0269578,0 16.0933465,0.521221723 16.8418742,1.35531421 C17.7765097,1.1628019 18.6546692,0.80562882 19.447456,0.313865459 C19.1410805,1.31598538 18.4905081,2.15704075 17.6432935,2.68820945 C18.4733165,2.58445481 19.2641282,2.3537614 20,2.01242697 C19.4498701,2.87307024 18.7541607,3.62896416 17.952522,4.23404658 C17.9604228,4.4180657 17.9643732,4.60315603 17.9643732,4.78924106 C17.9643732,10.4604731 13.8372289,17 6.28991551,17"></path>
  </symbol>
  <symbol id="facebook" viewBox="0 0 20 20">
    <path d="M18.89625,0 L1.10375,0 C0.49375,0 0,0.49375 0,1.10375 L0,18.89625 C0,19.50625 0.49375,20 1.10375,20 L10.6825,20 L10.6825,12.255 L8.075,12.255 L8.075,9.2375 L10.6825,9.2375 L10.6825,7.00875 C10.6825,4.42625 12.26,3.02125 14.565,3.02125 C15.66875,3.02125 16.6175,3.10125 16.89375,3.13875 L16.89375,5.83875 L15.29375,5.83875 C14.04375,5.83875 13.8,6.43375 13.8,7.30875 L13.8,9.23375 L16.7875,9.23375 L16.4,12.25375 L13.8,12.25375 L13.8,20 L18.89625,20 C19.50625,20 20,19.50625 20,18.89625 L20,1.10375 C20,0.49375 19.50625,0 18.89625,0"></path>
  </symbol>
</svg>
